<mxfile host="app.diagrams.net" agent="Mozilla/5.0 (Windows NT 10.0; Win64; x64) AppleWebKit/537.36 (KHTML, like Gecko) Chrome/134.0.0.0 Safari/537.36" version="26.1.1">
  <diagram name="Page-1" id="qCMlR8g_XrH_YXfJJpCa">
    <mxGraphModel dx="1313" dy="653" grid="1" gridSize="10" guides="1" tooltips="1" connect="1" arrows="1" fold="1" page="1" pageScale="1" pageWidth="850" pageHeight="1100" math="0" shadow="0">
      <root>
        <mxCell id="0" />
        <mxCell id="1" parent="0" />
        <mxCell id="LjDfVRl0ufvT3sGH3APk-40" value="&lt;b&gt;&lt;font style=&quot;font-size: 14px;&quot;&gt;Customer Data&lt;/font&gt;&lt;/b&gt;" style="text;strokeColor=none;align=center;fillColor=none;html=1;verticalAlign=middle;whiteSpace=wrap;rounded=0;" vertex="1" parent="1">
          <mxGeometry x="70" y="690" width="115" height="52.63" as="geometry" />
        </mxCell>
        <mxCell id="LjDfVRl0ufvT3sGH3APk-44" value="" style="endArrow=classic;html=1;rounded=0;" edge="1" parent="1">
          <mxGeometry width="50" height="50" relative="1" as="geometry">
            <mxPoint x="185" y="670" as="sourcePoint" />
            <mxPoint x="255" y="670" as="targetPoint" />
          </mxGeometry>
        </mxCell>
        <mxCell id="LjDfVRl0ufvT3sGH3APk-56" value="" style="endArrow=classic;html=1;rounded=0;exitX=0.524;exitY=-0.002;exitDx=0;exitDy=0;exitPerimeter=0;" edge="1" parent="1" source="LjDfVRl0ufvT3sGH3APk-41">
          <mxGeometry width="50" height="50" relative="1" as="geometry">
            <mxPoint x="405" y="627.81" as="sourcePoint" />
            <mxPoint x="455" y="630" as="targetPoint" />
          </mxGeometry>
        </mxCell>
        <mxCell id="LjDfVRl0ufvT3sGH3APk-57" value="" style="endArrow=classic;html=1;rounded=0;" edge="1" parent="1">
          <mxGeometry width="50" height="50" relative="1" as="geometry">
            <mxPoint x="215" y="670" as="sourcePoint" />
            <mxPoint x="535" y="710" as="targetPoint" />
            <Array as="points">
              <mxPoint x="215" y="750" />
              <mxPoint x="535" y="750" />
            </Array>
          </mxGeometry>
        </mxCell>
        <mxCell id="LjDfVRl0ufvT3sGH3APk-64" value="" style="group" vertex="1" connectable="0" parent="1">
          <mxGeometry x="665" y="550" width="140" height="150" as="geometry" />
        </mxCell>
        <mxCell id="LjDfVRl0ufvT3sGH3APk-84" style="edgeStyle=orthogonalEdgeStyle;rounded=0;orthogonalLoop=1;jettySize=auto;html=1;exitX=0.532;exitY=0.004;exitDx=0;exitDy=0;exitPerimeter=0;" edge="1" parent="LjDfVRl0ufvT3sGH3APk-64" source="LjDfVRl0ufvT3sGH3APk-65">
          <mxGeometry relative="1" as="geometry">
            <mxPoint x="190" y="80" as="targetPoint" />
          </mxGeometry>
        </mxCell>
        <mxCell id="LjDfVRl0ufvT3sGH3APk-65" value="" style="rounded=1;whiteSpace=wrap;html=1;direction=south;" vertex="1" parent="LjDfVRl0ufvT3sGH3APk-64">
          <mxGeometry width="140" height="150" as="geometry" />
        </mxCell>
        <mxCell id="LjDfVRl0ufvT3sGH3APk-66" value="" style="ellipse;whiteSpace=wrap;html=1;aspect=fixed;container=1;" vertex="1" parent="LjDfVRl0ufvT3sGH3APk-64">
          <mxGeometry x="30" y="57.370000000000005" width="80" height="80" as="geometry">
            <mxRectangle x="30" y="57.370000000000005" width="50" height="40" as="alternateBounds" />
          </mxGeometry>
        </mxCell>
        <mxCell id="LjDfVRl0ufvT3sGH3APk-74" value="&lt;font style=&quot;font-size: 16px;&quot;&gt;&lt;b&gt;ML Model&lt;/b&gt;&lt;/font&gt;" style="text;strokeColor=none;align=center;fillColor=none;html=1;verticalAlign=middle;whiteSpace=wrap;rounded=0;" vertex="1" parent="LjDfVRl0ufvT3sGH3APk-64">
          <mxGeometry x="20" y="10" width="100" height="38.63" as="geometry" />
        </mxCell>
        <mxCell id="LjDfVRl0ufvT3sGH3APk-68" value="&lt;span style=&quot;font-size: 16px;&quot;&gt;&lt;b&gt;Determining Optimal Personalisation Level &amp;amp; Cost Estimation&lt;/b&gt;&lt;/span&gt;" style="text;strokeColor=none;align=center;fillColor=none;html=1;verticalAlign=middle;whiteSpace=wrap;rounded=0;" vertex="1" parent="1">
          <mxGeometry x="637.5" y="485" width="195" height="60" as="geometry" />
        </mxCell>
        <mxCell id="LjDfVRl0ufvT3sGH3APk-63" value="&lt;b&gt;&lt;font style=&quot;font-size: 16px;&quot;&gt;Response Probability Prediction&lt;/font&gt;&lt;/b&gt;" style="text;strokeColor=none;align=center;fillColor=none;html=1;verticalAlign=middle;whiteSpace=wrap;rounded=0;" vertex="1" parent="1">
          <mxGeometry x="465" y="490" width="140" height="50" as="geometry" />
        </mxCell>
        <mxCell id="LjDfVRl0ufvT3sGH3APk-45" value="&lt;b&gt;&lt;font style=&quot;font-size: 16px;&quot;&gt;Customer Segmentation&lt;/font&gt;&lt;/b&gt;" style="text;strokeColor=none;align=center;fillColor=none;html=1;verticalAlign=middle;whiteSpace=wrap;rounded=0;" vertex="1" parent="1">
          <mxGeometry x="265" y="490" width="140" height="50" as="geometry" />
        </mxCell>
        <mxCell id="LjDfVRl0ufvT3sGH3APk-70" value="" style="group" vertex="1" connectable="0" parent="1">
          <mxGeometry x="465" y="550" width="140" height="150" as="geometry" />
        </mxCell>
        <mxCell id="LjDfVRl0ufvT3sGH3APk-77" style="edgeStyle=orthogonalEdgeStyle;rounded=0;orthogonalLoop=1;jettySize=auto;html=1;exitX=0.526;exitY=-0.003;exitDx=0;exitDy=0;exitPerimeter=0;" edge="1" parent="LjDfVRl0ufvT3sGH3APk-70" source="LjDfVRl0ufvT3sGH3APk-61">
          <mxGeometry relative="1" as="geometry">
            <mxPoint x="190" y="79" as="targetPoint" />
          </mxGeometry>
        </mxCell>
        <mxCell id="LjDfVRl0ufvT3sGH3APk-61" value="" style="rounded=1;whiteSpace=wrap;html=1;direction=south;" vertex="1" parent="LjDfVRl0ufvT3sGH3APk-70">
          <mxGeometry width="140" height="150" as="geometry" />
        </mxCell>
        <mxCell id="LjDfVRl0ufvT3sGH3APk-75" value="" style="group" vertex="1" connectable="0" parent="LjDfVRl0ufvT3sGH3APk-70">
          <mxGeometry x="20" y="10" width="100" height="127.37" as="geometry" />
        </mxCell>
        <mxCell id="LjDfVRl0ufvT3sGH3APk-62" value="" style="ellipse;whiteSpace=wrap;html=1;aspect=fixed;" vertex="1" parent="LjDfVRl0ufvT3sGH3APk-75">
          <mxGeometry x="10" y="47.370000000000005" width="80" height="80" as="geometry" />
        </mxCell>
        <mxCell id="LjDfVRl0ufvT3sGH3APk-73" value="&lt;font style=&quot;font-size: 16px;&quot;&gt;&lt;b&gt;ML Model&lt;/b&gt;&lt;/font&gt;" style="text;strokeColor=none;align=center;fillColor=none;html=1;verticalAlign=middle;whiteSpace=wrap;rounded=0;" vertex="1" parent="LjDfVRl0ufvT3sGH3APk-75">
          <mxGeometry width="100" height="38.63" as="geometry" />
        </mxCell>
        <mxCell id="LjDfVRl0ufvT3sGH3APk-72" value="" style="group" vertex="1" connectable="0" parent="1">
          <mxGeometry x="265" y="551.37" width="140" height="150" as="geometry" />
        </mxCell>
        <mxCell id="LjDfVRl0ufvT3sGH3APk-41" value="" style="rounded=1;whiteSpace=wrap;html=1;direction=south;" vertex="1" parent="LjDfVRl0ufvT3sGH3APk-72">
          <mxGeometry width="140" height="150" as="geometry" />
        </mxCell>
        <mxCell id="LjDfVRl0ufvT3sGH3APk-43" value="" style="ellipse;whiteSpace=wrap;html=1;aspect=fixed;container=1;" vertex="1" parent="LjDfVRl0ufvT3sGH3APk-72">
          <mxGeometry x="30" y="57.370000000000005" width="80" height="80" as="geometry" />
        </mxCell>
        <mxCell id="LjDfVRl0ufvT3sGH3APk-71" value="&lt;font style=&quot;font-size: 16px;&quot;&gt;&lt;b&gt;ML Model&lt;/b&gt;&lt;/font&gt;" style="text;strokeColor=none;align=center;fillColor=none;html=1;verticalAlign=middle;whiteSpace=wrap;rounded=0;" vertex="1" parent="LjDfVRl0ufvT3sGH3APk-72">
          <mxGeometry x="20" y="8.629999999999995" width="100" height="38.63" as="geometry" />
        </mxCell>
        <mxCell id="LjDfVRl0ufvT3sGH3APk-78" value="" style="endArrow=classic;html=1;rounded=0;" edge="1" parent="1">
          <mxGeometry width="50" height="50" relative="1" as="geometry">
            <mxPoint x="535" y="750" as="sourcePoint" />
            <mxPoint x="735" y="710" as="targetPoint" />
            <Array as="points">
              <mxPoint x="735" y="750" />
            </Array>
          </mxGeometry>
        </mxCell>
        <mxCell id="LjDfVRl0ufvT3sGH3APk-94" value="" style="endArrow=classic;html=1;rounded=0;" edge="1" parent="1">
          <mxGeometry width="50" height="50" relative="1" as="geometry">
            <mxPoint x="335" y="490" as="sourcePoint" />
            <mxPoint x="410" y="390" as="targetPoint" />
            <Array as="points">
              <mxPoint x="335" y="390" />
            </Array>
          </mxGeometry>
        </mxCell>
        <mxCell id="LjDfVRl0ufvT3sGH3APk-96" value="" style="endArrow=classic;html=1;rounded=0;entryX=0.5;entryY=0;entryDx=0;entryDy=0;" edge="1" parent="1" target="LjDfVRl0ufvT3sGH3APk-68">
          <mxGeometry width="50" height="50" relative="1" as="geometry">
            <mxPoint x="650" y="390" as="sourcePoint" />
            <mxPoint x="720" y="480" as="targetPoint" />
            <Array as="points">
              <mxPoint x="735" y="390" />
            </Array>
          </mxGeometry>
        </mxCell>
        <mxCell id="LjDfVRl0ufvT3sGH3APk-98" value="" style="image;aspect=fixed;perimeter=ellipsePerimeter;html=1;align=center;shadow=0;dashed=0;spacingTop=3;image=img/lib/active_directory/database.svg;" vertex="1" parent="1">
          <mxGeometry x="85" y="638.47" width="85" height="62.9" as="geometry" />
        </mxCell>
        <mxCell id="LjDfVRl0ufvT3sGH3APk-100" value="" style="image;aspect=fixed;perimeter=ellipsePerimeter;html=1;align=center;shadow=0;dashed=0;spacingTop=3;image=img/lib/active_directory/database.svg;" vertex="1" parent="1">
          <mxGeometry x="85" y="562.63" width="85" height="62.9" as="geometry" />
        </mxCell>
        <mxCell id="LjDfVRl0ufvT3sGH3APk-101" value="&lt;b&gt;&lt;font style=&quot;font-size: 14px;&quot;&gt;Market Data&lt;/font&gt;&lt;/b&gt;" style="text;strokeColor=none;align=center;fillColor=none;html=1;verticalAlign=middle;whiteSpace=wrap;rounded=0;" vertex="1" parent="1">
          <mxGeometry x="70" y="520" width="115" height="52.63" as="geometry" />
        </mxCell>
        <mxCell id="LjDfVRl0ufvT3sGH3APk-102" value="" style="endArrow=classic;html=1;rounded=0;" edge="1" parent="1">
          <mxGeometry width="50" height="50" relative="1" as="geometry">
            <mxPoint x="175" y="590" as="sourcePoint" />
            <mxPoint x="255" y="590" as="targetPoint" />
          </mxGeometry>
        </mxCell>
        <mxCell id="LjDfVRl0ufvT3sGH3APk-103" value="" style="group" vertex="1" connectable="0" parent="1">
          <mxGeometry x="860" y="550" width="140" height="150" as="geometry" />
        </mxCell>
        <mxCell id="LjDfVRl0ufvT3sGH3APk-105" value="" style="rounded=1;whiteSpace=wrap;html=1;direction=south;" vertex="1" parent="LjDfVRl0ufvT3sGH3APk-103">
          <mxGeometry width="140" height="150" as="geometry" />
        </mxCell>
        <mxCell id="LjDfVRl0ufvT3sGH3APk-107" value="&lt;font style=&quot;font-size: 16px;&quot;&gt;&lt;b&gt;Optimization&lt;/b&gt;&lt;/font&gt;&lt;div&gt;&lt;font style=&quot;font-size: 16px;&quot;&gt;&lt;b&gt;Model&lt;/b&gt;&lt;/font&gt;&lt;/div&gt;" style="text;strokeColor=none;align=center;fillColor=none;html=1;verticalAlign=middle;whiteSpace=wrap;rounded=0;" vertex="1" parent="LjDfVRl0ufvT3sGH3APk-103">
          <mxGeometry x="20" y="10" width="100" height="38.63" as="geometry" />
        </mxCell>
        <mxCell id="LjDfVRl0ufvT3sGH3APk-108" value="" style="shape=process;whiteSpace=wrap;html=1;backgroundOutline=1;" vertex="1" parent="LjDfVRl0ufvT3sGH3APk-103">
          <mxGeometry x="25" y="80" width="90" height="46" as="geometry" />
        </mxCell>
        <mxCell id="LjDfVRl0ufvT3sGH3APk-109" value="&lt;b&gt;&lt;font style=&quot;font-size: 16px;&quot;&gt;Clean + Preprocess&lt;/font&gt;&lt;/b&gt;" style="text;strokeColor=none;align=center;fillColor=none;html=1;verticalAlign=middle;whiteSpace=wrap;rounded=0;" vertex="1" parent="1">
          <mxGeometry x="525" y="742.63" width="170" height="50" as="geometry" />
        </mxCell>
        <mxCell id="LjDfVRl0ufvT3sGH3APk-110" value="&lt;b&gt;&lt;font style=&quot;font-size: 16px;&quot;&gt;Clean +&lt;/font&gt;&lt;/b&gt;&lt;div&gt;&lt;b&gt;&lt;font style=&quot;font-size: 16px;&quot;&gt;Preprocess&lt;/font&gt;&lt;/b&gt;&lt;/div&gt;" style="text;strokeColor=none;align=center;fillColor=none;html=1;verticalAlign=middle;whiteSpace=wrap;rounded=0;" vertex="1" parent="1">
          <mxGeometry x="170" y="551.37" width="100" height="20" as="geometry" />
        </mxCell>
        <mxCell id="LjDfVRl0ufvT3sGH3APk-111" value="" style="endArrow=classic;html=1;rounded=0;exitX=0;exitY=0.5;exitDx=0;exitDy=0;" edge="1" parent="1" source="LjDfVRl0ufvT3sGH3APk-105">
          <mxGeometry width="50" height="50" relative="1" as="geometry">
            <mxPoint x="1135" y="540" as="sourcePoint" />
            <mxPoint x="295" y="480" as="targetPoint" />
            <Array as="points">
              <mxPoint x="930" y="270" />
              <mxPoint x="295" y="270" />
            </Array>
          </mxGeometry>
        </mxCell>
        <mxCell id="LjDfVRl0ufvT3sGH3APk-112" value="&lt;b&gt;&lt;font style=&quot;font-size: 16px;&quot;&gt;Retain with new data prediocally / test the model before deployment&lt;/font&gt;&lt;/b&gt;" style="text;strokeColor=none;align=center;fillColor=none;html=1;verticalAlign=middle;whiteSpace=wrap;rounded=0;" vertex="1" parent="1">
          <mxGeometry x="500" y="200" width="200" height="50" as="geometry" />
        </mxCell>
        <mxCell id="LjDfVRl0ufvT3sGH3APk-113" value="" style="endArrow=classic;html=1;rounded=0;" edge="1" parent="1">
          <mxGeometry width="50" height="50" relative="1" as="geometry">
            <mxPoint x="930" y="700" as="sourcePoint" />
            <mxPoint x="930" y="770" as="targetPoint" />
          </mxGeometry>
        </mxCell>
        <mxCell id="LjDfVRl0ufvT3sGH3APk-114" value="" style="ellipse;whiteSpace=wrap;html=1;" vertex="1" parent="1">
          <mxGeometry x="875" y="780" width="120" height="80" as="geometry" />
        </mxCell>
        <mxCell id="LjDfVRl0ufvT3sGH3APk-115" value="&lt;b&gt;&lt;font style=&quot;font-size: 16px;&quot;&gt;Deploy&lt;/font&gt;&lt;/b&gt;" style="text;strokeColor=none;align=center;fillColor=none;html=1;verticalAlign=middle;whiteSpace=wrap;rounded=0;" vertex="1" parent="1">
          <mxGeometry x="905" y="805" width="60" height="30" as="geometry" />
        </mxCell>
        <mxCell id="LjDfVRl0ufvT3sGH3APk-117" value="&lt;b&gt;&lt;font style=&quot;font-size: 14px;&quot;&gt;Customer Data&lt;/font&gt;&lt;/b&gt;" style="text;strokeColor=none;align=center;fillColor=none;html=1;verticalAlign=middle;whiteSpace=wrap;rounded=0;" vertex="1" parent="1">
          <mxGeometry x="70" y="1440" width="115" height="52.63" as="geometry" />
        </mxCell>
        <mxCell id="LjDfVRl0ufvT3sGH3APk-118" value="" style="endArrow=classic;html=1;rounded=0;" edge="1" parent="1">
          <mxGeometry width="50" height="50" relative="1" as="geometry">
            <mxPoint x="185" y="1420" as="sourcePoint" />
            <mxPoint x="255" y="1420" as="targetPoint" />
          </mxGeometry>
        </mxCell>
        <mxCell id="LjDfVRl0ufvT3sGH3APk-119" value="" style="endArrow=classic;html=1;rounded=0;exitX=0.524;exitY=-0.002;exitDx=0;exitDy=0;exitPerimeter=0;" edge="1" parent="1" source="LjDfVRl0ufvT3sGH3APk-136">
          <mxGeometry width="50" height="50" relative="1" as="geometry">
            <mxPoint x="405" y="1377.81" as="sourcePoint" />
            <mxPoint x="455" y="1380" as="targetPoint" />
          </mxGeometry>
        </mxCell>
        <mxCell id="LjDfVRl0ufvT3sGH3APk-120" value="" style="endArrow=classic;html=1;rounded=0;" edge="1" parent="1">
          <mxGeometry width="50" height="50" relative="1" as="geometry">
            <mxPoint x="215" y="1420" as="sourcePoint" />
            <mxPoint x="535" y="1460" as="targetPoint" />
            <Array as="points">
              <mxPoint x="215" y="1500" />
              <mxPoint x="535" y="1500" />
            </Array>
          </mxGeometry>
        </mxCell>
        <mxCell id="LjDfVRl0ufvT3sGH3APk-121" value="" style="group" vertex="1" connectable="0" parent="1">
          <mxGeometry x="665" y="1300" width="140" height="150" as="geometry" />
        </mxCell>
        <mxCell id="LjDfVRl0ufvT3sGH3APk-122" style="edgeStyle=orthogonalEdgeStyle;rounded=0;orthogonalLoop=1;jettySize=auto;html=1;exitX=0.532;exitY=0.004;exitDx=0;exitDy=0;exitPerimeter=0;" edge="1" parent="LjDfVRl0ufvT3sGH3APk-121" source="LjDfVRl0ufvT3sGH3APk-123">
          <mxGeometry relative="1" as="geometry">
            <mxPoint x="190" y="80" as="targetPoint" />
          </mxGeometry>
        </mxCell>
        <mxCell id="LjDfVRl0ufvT3sGH3APk-123" value="" style="rounded=1;whiteSpace=wrap;html=1;direction=south;" vertex="1" parent="LjDfVRl0ufvT3sGH3APk-121">
          <mxGeometry width="140" height="150" as="geometry" />
        </mxCell>
        <mxCell id="LjDfVRl0ufvT3sGH3APk-124" value="" style="ellipse;whiteSpace=wrap;html=1;aspect=fixed;container=1;" vertex="1" parent="LjDfVRl0ufvT3sGH3APk-121">
          <mxGeometry x="30" y="57.370000000000005" width="80" height="80" as="geometry">
            <mxRectangle x="30" y="57.370000000000005" width="50" height="40" as="alternateBounds" />
          </mxGeometry>
        </mxCell>
        <mxCell id="LjDfVRl0ufvT3sGH3APk-125" value="&lt;font style=&quot;font-size: 16px;&quot;&gt;&lt;b&gt;ML Model&lt;/b&gt;&lt;/font&gt;" style="text;strokeColor=none;align=center;fillColor=none;html=1;verticalAlign=middle;whiteSpace=wrap;rounded=0;" vertex="1" parent="LjDfVRl0ufvT3sGH3APk-121">
          <mxGeometry x="20" y="10" width="100" height="38.63" as="geometry" />
        </mxCell>
        <mxCell id="LjDfVRl0ufvT3sGH3APk-126" value="&lt;b&gt;&lt;font style=&quot;font-size: 16px;&quot;&gt;Achieve Optimal Personalization Level&lt;/font&gt;&lt;/b&gt;" style="text;strokeColor=none;align=center;fillColor=none;html=1;verticalAlign=middle;whiteSpace=wrap;rounded=0;" vertex="1" parent="1">
          <mxGeometry x="665" y="1250" width="140" height="30" as="geometry" />
        </mxCell>
        <mxCell id="LjDfVRl0ufvT3sGH3APk-127" value="&lt;b&gt;&lt;font style=&quot;font-size: 16px;&quot;&gt;Response Probability Prediction&lt;/font&gt;&lt;/b&gt;" style="text;strokeColor=none;align=center;fillColor=none;html=1;verticalAlign=middle;whiteSpace=wrap;rounded=0;" vertex="1" parent="1">
          <mxGeometry x="465" y="1240" width="140" height="50" as="geometry" />
        </mxCell>
        <mxCell id="LjDfVRl0ufvT3sGH3APk-128" value="&lt;b&gt;&lt;font style=&quot;font-size: 16px;&quot;&gt;Customer Segmentation&lt;/font&gt;&lt;/b&gt;" style="text;strokeColor=none;align=center;fillColor=none;html=1;verticalAlign=middle;whiteSpace=wrap;rounded=0;" vertex="1" parent="1">
          <mxGeometry x="265" y="1240" width="140" height="50" as="geometry" />
        </mxCell>
        <mxCell id="LjDfVRl0ufvT3sGH3APk-129" value="" style="group" vertex="1" connectable="0" parent="1">
          <mxGeometry x="465" y="1300" width="140" height="150" as="geometry" />
        </mxCell>
        <mxCell id="LjDfVRl0ufvT3sGH3APk-130" style="edgeStyle=orthogonalEdgeStyle;rounded=0;orthogonalLoop=1;jettySize=auto;html=1;exitX=0.526;exitY=-0.003;exitDx=0;exitDy=0;exitPerimeter=0;" edge="1" parent="LjDfVRl0ufvT3sGH3APk-129" source="LjDfVRl0ufvT3sGH3APk-131">
          <mxGeometry relative="1" as="geometry">
            <mxPoint x="190" y="79" as="targetPoint" />
          </mxGeometry>
        </mxCell>
        <mxCell id="LjDfVRl0ufvT3sGH3APk-131" value="" style="rounded=1;whiteSpace=wrap;html=1;direction=south;" vertex="1" parent="LjDfVRl0ufvT3sGH3APk-129">
          <mxGeometry width="140" height="150" as="geometry" />
        </mxCell>
        <mxCell id="LjDfVRl0ufvT3sGH3APk-132" value="" style="group" vertex="1" connectable="0" parent="LjDfVRl0ufvT3sGH3APk-129">
          <mxGeometry x="20" y="10" width="100" height="127.37" as="geometry" />
        </mxCell>
        <mxCell id="LjDfVRl0ufvT3sGH3APk-133" value="" style="ellipse;whiteSpace=wrap;html=1;aspect=fixed;" vertex="1" parent="LjDfVRl0ufvT3sGH3APk-132">
          <mxGeometry x="10" y="47.370000000000005" width="80" height="80" as="geometry" />
        </mxCell>
        <mxCell id="LjDfVRl0ufvT3sGH3APk-134" value="&lt;font style=&quot;font-size: 16px;&quot;&gt;&lt;b&gt;ML Model&lt;/b&gt;&lt;/font&gt;" style="text;strokeColor=none;align=center;fillColor=none;html=1;verticalAlign=middle;whiteSpace=wrap;rounded=0;" vertex="1" parent="LjDfVRl0ufvT3sGH3APk-132">
          <mxGeometry width="100" height="38.63" as="geometry" />
        </mxCell>
        <mxCell id="LjDfVRl0ufvT3sGH3APk-135" value="" style="group" vertex="1" connectable="0" parent="1">
          <mxGeometry x="265" y="1301.37" width="140" height="150" as="geometry" />
        </mxCell>
        <mxCell id="LjDfVRl0ufvT3sGH3APk-136" value="" style="rounded=1;whiteSpace=wrap;html=1;direction=south;" vertex="1" parent="LjDfVRl0ufvT3sGH3APk-135">
          <mxGeometry width="140" height="150" as="geometry" />
        </mxCell>
        <mxCell id="LjDfVRl0ufvT3sGH3APk-137" value="" style="ellipse;whiteSpace=wrap;html=1;aspect=fixed;container=1;" vertex="1" parent="LjDfVRl0ufvT3sGH3APk-135">
          <mxGeometry x="30" y="57.370000000000005" width="80" height="80" as="geometry" />
        </mxCell>
        <mxCell id="LjDfVRl0ufvT3sGH3APk-138" value="&lt;font style=&quot;font-size: 16px;&quot;&gt;&lt;b&gt;ML Model&lt;/b&gt;&lt;/font&gt;" style="text;strokeColor=none;align=center;fillColor=none;html=1;verticalAlign=middle;whiteSpace=wrap;rounded=0;" vertex="1" parent="LjDfVRl0ufvT3sGH3APk-135">
          <mxGeometry x="20" y="8.629999999999995" width="100" height="38.63" as="geometry" />
        </mxCell>
        <mxCell id="LjDfVRl0ufvT3sGH3APk-139" value="" style="endArrow=classic;html=1;rounded=0;" edge="1" parent="1">
          <mxGeometry width="50" height="50" relative="1" as="geometry">
            <mxPoint x="535" y="1500" as="sourcePoint" />
            <mxPoint x="735" y="1460" as="targetPoint" />
            <Array as="points">
              <mxPoint x="735" y="1500" />
            </Array>
          </mxGeometry>
        </mxCell>
        <mxCell id="LjDfVRl0ufvT3sGH3APk-140" value="&lt;b&gt;&lt;font style=&quot;font-size: 16px;&quot;&gt;Cost and ROI&lt;/font&gt;&lt;/b&gt;&lt;div&gt;&lt;b&gt;&lt;font style=&quot;font-size: 16px;&quot;&gt;Prediction&lt;/font&gt;&lt;/b&gt;&lt;/div&gt;" style="text;strokeColor=none;align=center;fillColor=none;html=1;verticalAlign=middle;whiteSpace=wrap;rounded=0;" vertex="1" parent="1">
          <mxGeometry x="865" y="1250" width="140" height="30" as="geometry" />
        </mxCell>
        <mxCell id="LjDfVRl0ufvT3sGH3APk-141" value="" style="endArrow=classic;html=1;rounded=0;" edge="1" parent="1">
          <mxGeometry width="50" height="50" relative="1" as="geometry">
            <mxPoint x="735" y="1500" as="sourcePoint" />
            <mxPoint x="935" y="1460" as="targetPoint" />
            <Array as="points">
              <mxPoint x="935" y="1500" />
            </Array>
          </mxGeometry>
        </mxCell>
        <mxCell id="LjDfVRl0ufvT3sGH3APk-142" value="" style="group" vertex="1" connectable="0" parent="1">
          <mxGeometry x="865" y="1300" width="140" height="150" as="geometry" />
        </mxCell>
        <mxCell id="LjDfVRl0ufvT3sGH3APk-143" style="edgeStyle=orthogonalEdgeStyle;rounded=0;orthogonalLoop=1;jettySize=auto;html=1;exitX=0.532;exitY=0.004;exitDx=0;exitDy=0;exitPerimeter=0;" edge="1" parent="LjDfVRl0ufvT3sGH3APk-142" source="LjDfVRl0ufvT3sGH3APk-144">
          <mxGeometry relative="1" as="geometry">
            <mxPoint x="190" y="80" as="targetPoint" />
          </mxGeometry>
        </mxCell>
        <mxCell id="LjDfVRl0ufvT3sGH3APk-144" value="" style="rounded=1;whiteSpace=wrap;html=1;direction=south;" vertex="1" parent="LjDfVRl0ufvT3sGH3APk-142">
          <mxGeometry width="140" height="150" as="geometry" />
        </mxCell>
        <mxCell id="LjDfVRl0ufvT3sGH3APk-145" value="" style="ellipse;whiteSpace=wrap;html=1;aspect=fixed;container=1;" vertex="1" parent="LjDfVRl0ufvT3sGH3APk-142">
          <mxGeometry x="30" y="57.370000000000005" width="80" height="80" as="geometry" />
        </mxCell>
        <mxCell id="LjDfVRl0ufvT3sGH3APk-146" value="&lt;font style=&quot;font-size: 16px;&quot;&gt;&lt;b&gt;ML Model&lt;/b&gt;&lt;/font&gt;" style="text;strokeColor=none;align=center;fillColor=none;html=1;verticalAlign=middle;whiteSpace=wrap;rounded=0;" vertex="1" parent="LjDfVRl0ufvT3sGH3APk-142">
          <mxGeometry x="20" y="10" width="100" height="38.63" as="geometry" />
        </mxCell>
        <mxCell id="LjDfVRl0ufvT3sGH3APk-147" value="" style="rhombus;whiteSpace=wrap;html=1;" vertex="1" parent="1">
          <mxGeometry x="545" y="1052.5" width="220" height="175" as="geometry" />
        </mxCell>
        <mxCell id="LjDfVRl0ufvT3sGH3APk-148" value="" style="endArrow=classic;html=1;rounded=0;" edge="1" parent="1">
          <mxGeometry width="50" height="50" relative="1" as="geometry">
            <mxPoint x="335" y="1240" as="sourcePoint" />
            <mxPoint x="535" y="1140" as="targetPoint" />
            <Array as="points">
              <mxPoint x="335" y="1140" />
            </Array>
          </mxGeometry>
        </mxCell>
        <mxCell id="LjDfVRl0ufvT3sGH3APk-149" value="" style="endArrow=classic;html=1;rounded=0;" edge="1" parent="1">
          <mxGeometry width="50" height="50" relative="1" as="geometry">
            <mxPoint x="775" y="1140" as="sourcePoint" />
            <mxPoint x="935" y="1240" as="targetPoint" />
            <Array as="points">
              <mxPoint x="935" y="1140" />
            </Array>
          </mxGeometry>
        </mxCell>
        <mxCell id="LjDfVRl0ufvT3sGH3APk-150" value="&lt;b&gt;&lt;font style=&quot;font-size: 16px;&quot;&gt;Define Appropriate&lt;/font&gt;&lt;/b&gt;&lt;div&gt;&lt;b&gt;&lt;font style=&quot;font-size: 16px;&quot;&gt;ROI Metrics for each Segmentation&amp;nbsp;&lt;/font&gt;&lt;/b&gt;&lt;/div&gt;" style="text;strokeColor=none;align=center;fillColor=none;html=1;verticalAlign=middle;whiteSpace=wrap;rounded=0;" vertex="1" parent="1">
          <mxGeometry x="565" y="1110" width="180" height="60" as="geometry" />
        </mxCell>
        <mxCell id="LjDfVRl0ufvT3sGH3APk-151" value="" style="image;aspect=fixed;perimeter=ellipsePerimeter;html=1;align=center;shadow=0;dashed=0;spacingTop=3;image=img/lib/active_directory/database.svg;" vertex="1" parent="1">
          <mxGeometry x="85" y="1388.47" width="85" height="62.9" as="geometry" />
        </mxCell>
        <mxCell id="LjDfVRl0ufvT3sGH3APk-152" value="" style="image;aspect=fixed;perimeter=ellipsePerimeter;html=1;align=center;shadow=0;dashed=0;spacingTop=3;image=img/lib/active_directory/database.svg;" vertex="1" parent="1">
          <mxGeometry x="85" y="1312.63" width="85" height="62.9" as="geometry" />
        </mxCell>
        <mxCell id="LjDfVRl0ufvT3sGH3APk-153" value="&lt;b&gt;&lt;font style=&quot;font-size: 14px;&quot;&gt;Market Data&lt;/font&gt;&lt;/b&gt;" style="text;strokeColor=none;align=center;fillColor=none;html=1;verticalAlign=middle;whiteSpace=wrap;rounded=0;" vertex="1" parent="1">
          <mxGeometry x="70" y="1270" width="115" height="52.63" as="geometry" />
        </mxCell>
        <mxCell id="LjDfVRl0ufvT3sGH3APk-154" value="" style="endArrow=classic;html=1;rounded=0;" edge="1" parent="1">
          <mxGeometry width="50" height="50" relative="1" as="geometry">
            <mxPoint x="175" y="1340" as="sourcePoint" />
            <mxPoint x="255" y="1340" as="targetPoint" />
          </mxGeometry>
        </mxCell>
        <mxCell id="LjDfVRl0ufvT3sGH3APk-155" value="" style="group" vertex="1" connectable="0" parent="1">
          <mxGeometry x="1065" y="1300" width="140" height="150" as="geometry" />
        </mxCell>
        <mxCell id="LjDfVRl0ufvT3sGH3APk-156" value="" style="rounded=1;whiteSpace=wrap;html=1;direction=south;" vertex="1" parent="LjDfVRl0ufvT3sGH3APk-155">
          <mxGeometry width="140" height="150" as="geometry" />
        </mxCell>
        <mxCell id="LjDfVRl0ufvT3sGH3APk-157" value="&lt;font style=&quot;font-size: 16px;&quot;&gt;&lt;b&gt;Optimization&lt;/b&gt;&lt;/font&gt;&lt;div&gt;&lt;font style=&quot;font-size: 16px;&quot;&gt;&lt;b&gt;Model&lt;/b&gt;&lt;/font&gt;&lt;/div&gt;" style="text;strokeColor=none;align=center;fillColor=none;html=1;verticalAlign=middle;whiteSpace=wrap;rounded=0;" vertex="1" parent="LjDfVRl0ufvT3sGH3APk-155">
          <mxGeometry x="20" y="10" width="100" height="38.63" as="geometry" />
        </mxCell>
        <mxCell id="LjDfVRl0ufvT3sGH3APk-158" value="" style="shape=process;whiteSpace=wrap;html=1;backgroundOutline=1;" vertex="1" parent="LjDfVRl0ufvT3sGH3APk-155">
          <mxGeometry x="25" y="80" width="90" height="46" as="geometry" />
        </mxCell>
        <mxCell id="LjDfVRl0ufvT3sGH3APk-159" value="&lt;b&gt;&lt;font style=&quot;font-size: 16px;&quot;&gt;Clean + Preprocess&lt;/font&gt;&lt;/b&gt;" style="text;strokeColor=none;align=center;fillColor=none;html=1;verticalAlign=middle;whiteSpace=wrap;rounded=0;" vertex="1" parent="1">
          <mxGeometry x="525" y="1492.63" width="170" height="50" as="geometry" />
        </mxCell>
        <mxCell id="LjDfVRl0ufvT3sGH3APk-160" value="&lt;b&gt;&lt;font style=&quot;font-size: 16px;&quot;&gt;Clean +&lt;/font&gt;&lt;/b&gt;&lt;div&gt;&lt;b&gt;&lt;font style=&quot;font-size: 16px;&quot;&gt;Preprocess&lt;/font&gt;&lt;/b&gt;&lt;/div&gt;" style="text;strokeColor=none;align=center;fillColor=none;html=1;verticalAlign=middle;whiteSpace=wrap;rounded=0;" vertex="1" parent="1">
          <mxGeometry x="170" y="1301.37" width="100" height="20" as="geometry" />
        </mxCell>
        <mxCell id="LjDfVRl0ufvT3sGH3APk-161" value="" style="endArrow=classic;html=1;rounded=0;exitX=0;exitY=0.5;exitDx=0;exitDy=0;" edge="1" parent="1" source="LjDfVRl0ufvT3sGH3APk-156">
          <mxGeometry width="50" height="50" relative="1" as="geometry">
            <mxPoint x="1135" y="1290" as="sourcePoint" />
            <mxPoint x="295" y="1220" as="targetPoint" />
            <Array as="points">
              <mxPoint x="1135" y="1020" />
              <mxPoint x="295" y="1020" />
            </Array>
          </mxGeometry>
        </mxCell>
        <mxCell id="LjDfVRl0ufvT3sGH3APk-162" value="&lt;b&gt;&lt;font style=&quot;font-size: 16px;&quot;&gt;Retain with new data prediocally / test the model before deployment&lt;/font&gt;&lt;/b&gt;" style="text;strokeColor=none;align=center;fillColor=none;html=1;verticalAlign=middle;whiteSpace=wrap;rounded=0;" vertex="1" parent="1">
          <mxGeometry x="610" y="950" width="200" height="50" as="geometry" />
        </mxCell>
        <mxCell id="LjDfVRl0ufvT3sGH3APk-163" value="" style="endArrow=classic;html=1;rounded=0;" edge="1" parent="1">
          <mxGeometry width="50" height="50" relative="1" as="geometry">
            <mxPoint x="1130" y="1450" as="sourcePoint" />
            <mxPoint x="1130" y="1520" as="targetPoint" />
          </mxGeometry>
        </mxCell>
        <mxCell id="LjDfVRl0ufvT3sGH3APk-164" value="" style="ellipse;whiteSpace=wrap;html=1;" vertex="1" parent="1">
          <mxGeometry x="1075" y="1530" width="120" height="80" as="geometry" />
        </mxCell>
        <mxCell id="LjDfVRl0ufvT3sGH3APk-165" value="&lt;b&gt;&lt;font style=&quot;font-size: 16px;&quot;&gt;Deploy&lt;/font&gt;&lt;/b&gt;" style="text;strokeColor=none;align=center;fillColor=none;html=1;verticalAlign=middle;whiteSpace=wrap;rounded=0;" vertex="1" parent="1">
          <mxGeometry x="1105" y="1555" width="60" height="30" as="geometry" />
        </mxCell>
        <mxCell id="LjDfVRl0ufvT3sGH3APk-166" value="" style="group" vertex="1" connectable="0" parent="1">
          <mxGeometry x="425" y="302.5" width="220" height="175" as="geometry" />
        </mxCell>
        <mxCell id="LjDfVRl0ufvT3sGH3APk-93" value="" style="rhombus;whiteSpace=wrap;html=1;" vertex="1" parent="LjDfVRl0ufvT3sGH3APk-166">
          <mxGeometry width="220" height="175" as="geometry" />
        </mxCell>
        <mxCell id="LjDfVRl0ufvT3sGH3APk-97" value="&lt;b&gt;&lt;font style=&quot;font-size: 16px;&quot;&gt;Define Appropriate&lt;/font&gt;&lt;/b&gt;&lt;div&gt;&lt;b&gt;&lt;font style=&quot;font-size: 16px;&quot;&gt;ROI Metrics for each Segmentation&amp;nbsp;&lt;/font&gt;&lt;/b&gt;&lt;/div&gt;" style="text;strokeColor=none;align=center;fillColor=none;html=1;verticalAlign=middle;whiteSpace=wrap;rounded=0;" vertex="1" parent="LjDfVRl0ufvT3sGH3APk-166">
          <mxGeometry x="20" y="57.5" width="180" height="60" as="geometry" />
        </mxCell>
      </root>
    </mxGraphModel>
  </diagram>
</mxfile>
